<mxfile host="app.diagrams.net" agent="Mozilla/5.0 (Windows NT 10.0; Win64; x64) AppleWebKit/537.36 (KHTML, like Gecko) Chrome/134.0.0.0 Safari/537.36" version="26.0.16">
  <diagram name="Page-1" id="dkbhbpahSpV_1VONTGZ5">
    <mxGraphModel dx="1910" dy="620" grid="1" gridSize="10" guides="1" tooltips="1" connect="1" arrows="1" fold="1" page="1" pageScale="1" pageWidth="850" pageHeight="1100" math="0" shadow="0">
      <root>
        <mxCell id="0" />
        <mxCell id="1" parent="0" />
        <mxCell id="pHoPj_1X2IQjKwYX7QEu-36" value="" style="whiteSpace=wrap;html=1;aspect=fixed;fillColor=#dae8fc;strokeColor=#6c8ebf;" parent="1" vertex="1">
          <mxGeometry x="339.71" y="752.15" width="155.29" height="155.29" as="geometry" />
        </mxCell>
        <mxCell id="pHoPj_1X2IQjKwYX7QEu-30" value="" style="shape=cylinder3;whiteSpace=wrap;html=1;boundedLbl=1;backgroundOutline=1;size=15;rotation=-90;fillColor=#fff2cc;strokeColor=#d6b656;" parent="1" vertex="1">
          <mxGeometry x="393.63" y="769.93" width="42.87" height="119.73" as="geometry" />
        </mxCell>
        <mxCell id="80rmoIpg4Wi10GQ2Rf75-2" value="" style="endArrow=classic;html=1;rounded=0;exitX=1.006;exitY=0.597;exitDx=0;exitDy=0;exitPerimeter=0;" parent="1" source="80rmoIpg4Wi10GQ2Rf75-14" edge="1">
          <mxGeometry width="50" height="50" relative="1" as="geometry">
            <mxPoint x="83.5" y="120" as="sourcePoint" />
            <mxPoint x="153.5" y="120" as="targetPoint" />
          </mxGeometry>
        </mxCell>
        <mxCell id="80rmoIpg4Wi10GQ2Rf75-7" style="edgeStyle=orthogonalEdgeStyle;rounded=0;orthogonalLoop=1;jettySize=auto;html=1;exitX=1.2;exitY=0.104;exitDx=0;exitDy=0;entryX=0.55;entryY=0.1;entryDx=0;entryDy=0;entryPerimeter=0;exitPerimeter=0;" parent="1" source="80rmoIpg4Wi10GQ2Rf75-3" target="80rmoIpg4Wi10GQ2Rf75-10" edge="1">
          <mxGeometry relative="1" as="geometry" />
        </mxCell>
        <mxCell id="80rmoIpg4Wi10GQ2Rf75-3" value="" style="rounded=0;whiteSpace=wrap;html=1;fillColor=#e1d5e7;strokeColor=#9673a6;" parent="1" vertex="1">
          <mxGeometry x="153.5" y="70" width="20" height="480" as="geometry" />
        </mxCell>
        <mxCell id="80rmoIpg4Wi10GQ2Rf75-12" style="edgeStyle=orthogonalEdgeStyle;rounded=0;orthogonalLoop=1;jettySize=auto;html=1;exitX=0;exitY=0.25;exitDx=0;exitDy=0;entryX=1;entryY=0.25;entryDx=0;entryDy=0;" parent="1" source="80rmoIpg4Wi10GQ2Rf75-5" target="80rmoIpg4Wi10GQ2Rf75-3" edge="1">
          <mxGeometry relative="1" as="geometry" />
        </mxCell>
        <mxCell id="80rmoIpg4Wi10GQ2Rf75-5" value="" style="rounded=0;whiteSpace=wrap;html=1;fillColor=#d5e8d4;strokeColor=#82b366;" parent="1" vertex="1">
          <mxGeometry x="273.5" y="70" width="20" height="480" as="geometry" />
        </mxCell>
        <mxCell id="80rmoIpg4Wi10GQ2Rf75-27" style="edgeStyle=orthogonalEdgeStyle;rounded=0;orthogonalLoop=1;jettySize=auto;html=1;" parent="1" edge="1">
          <mxGeometry relative="1" as="geometry">
            <mxPoint x="513.5" y="280" as="targetPoint" />
            <mxPoint x="413.5" y="280" as="sourcePoint" />
          </mxGeometry>
        </mxCell>
        <mxCell id="80rmoIpg4Wi10GQ2Rf75-6" value="" style="rounded=0;whiteSpace=wrap;html=1;fillColor=#dae8fc;strokeColor=#6c8ebf;" parent="1" vertex="1">
          <mxGeometry x="393.5" y="70" width="20" height="480" as="geometry" />
        </mxCell>
        <mxCell id="80rmoIpg4Wi10GQ2Rf75-9" value="&lt;b&gt;GATEWAY&lt;/b&gt;" style="text;html=1;align=center;verticalAlign=middle;resizable=0;points=[];autosize=1;strokeColor=none;fillColor=none;rotation=-90;" parent="1" vertex="1">
          <mxGeometry x="123.5" y="100" width="80" height="30" as="geometry" />
        </mxCell>
        <mxCell id="80rmoIpg4Wi10GQ2Rf75-10" value="&lt;b&gt;CONTAINER-UI&lt;/b&gt;" style="text;html=1;align=center;verticalAlign=middle;resizable=0;points=[];autosize=1;strokeColor=none;fillColor=none;rotation=-90;" parent="1" vertex="1">
          <mxGeometry x="228.5" y="110" width="110" height="30" as="geometry" />
        </mxCell>
        <mxCell id="80rmoIpg4Wi10GQ2Rf75-11" value="&lt;b&gt;PLATFORM-SERVICE&lt;/b&gt;" style="text;html=1;align=center;verticalAlign=middle;resizable=0;points=[];autosize=1;strokeColor=none;fillColor=none;rotation=-90;" parent="1" vertex="1">
          <mxGeometry x="328.5" y="127" width="150" height="30" as="geometry" />
        </mxCell>
        <mxCell id="80rmoIpg4Wi10GQ2Rf75-14" value="" style="points=[[0.35,0,0],[0.98,0.51,0],[1,0.71,0],[0.67,1,0],[0,0.795,0],[0,0.65,0]];verticalLabelPosition=bottom;sketch=0;html=1;verticalAlign=top;aspect=fixed;align=center;pointerEvents=1;shape=mxgraph.cisco19.user;fillColor=#005073;strokeColor=none;" parent="1" vertex="1">
          <mxGeometry x="13.5" y="90" width="50" height="50" as="geometry" />
        </mxCell>
        <mxCell id="80rmoIpg4Wi10GQ2Rf75-15" value="authentication&lt;div&gt;check&lt;/div&gt;" style="text;html=1;align=center;verticalAlign=middle;resizable=0;points=[];autosize=1;strokeColor=none;fillColor=none;" parent="1" vertex="1">
          <mxGeometry x="178.5" y="146" width="100" height="40" as="geometry" />
        </mxCell>
        <mxCell id="80rmoIpg4Wi10GQ2Rf75-16" value="" style="endArrow=classic;html=1;rounded=0;entryX=0.015;entryY=0.839;entryDx=0;entryDy=0;entryPerimeter=0;" parent="1" target="80rmoIpg4Wi10GQ2Rf75-25" edge="1">
          <mxGeometry width="50" height="50" relative="1" as="geometry">
            <mxPoint x="223.5" y="190" as="sourcePoint" />
            <mxPoint x="223.5" y="270" as="targetPoint" />
          </mxGeometry>
        </mxCell>
        <mxCell id="80rmoIpg4Wi10GQ2Rf75-17" value="Yes" style="text;html=1;align=center;verticalAlign=middle;resizable=0;points=[];autosize=1;strokeColor=none;fillColor=none;" parent="1" vertex="1">
          <mxGeometry x="181.5" y="186" width="40" height="30" as="geometry" />
        </mxCell>
        <mxCell id="80rmoIpg4Wi10GQ2Rf75-18" value="No" style="text;html=1;align=center;verticalAlign=middle;resizable=0;points=[];autosize=1;strokeColor=none;fillColor=none;" parent="1" vertex="1">
          <mxGeometry x="188.5" y="243" width="40" height="30" as="geometry" />
        </mxCell>
        <mxCell id="80rmoIpg4Wi10GQ2Rf75-31" style="edgeStyle=orthogonalEdgeStyle;rounded=0;orthogonalLoop=1;jettySize=auto;html=1;exitX=0;exitY=0.5;exitDx=0;exitDy=0;" parent="1" edge="1">
          <mxGeometry relative="1" as="geometry">
            <mxPoint x="33.5" y="350" as="targetPoint" />
            <mxPoint x="514.5" y="350" as="sourcePoint" />
          </mxGeometry>
        </mxCell>
        <mxCell id="80rmoIpg4Wi10GQ2Rf75-20" value="" style="rounded=0;whiteSpace=wrap;html=1;fillColor=#e3c800;fontColor=#000000;strokeColor=#B09500;" parent="1" vertex="1">
          <mxGeometry x="513.5" y="70" width="20" height="480" as="geometry" />
        </mxCell>
        <mxCell id="80rmoIpg4Wi10GQ2Rf75-22" value="Login Page" style="text;html=1;align=center;verticalAlign=middle;resizable=0;points=[];autosize=1;strokeColor=none;fillColor=none;" parent="1" vertex="1">
          <mxGeometry x="303.5" y="327" width="80" height="30" as="geometry" />
        </mxCell>
        <mxCell id="80rmoIpg4Wi10GQ2Rf75-24" value="" style="endArrow=classic;html=1;rounded=0;entryX=0.03;entryY=0.438;entryDx=0;entryDy=0;entryPerimeter=0;exitX=0.976;exitY=0.438;exitDx=0;exitDy=0;exitPerimeter=0;" parent="1" edge="1">
          <mxGeometry width="50" height="50" relative="1" as="geometry">
            <mxPoint x="172.95999999999998" y="280.23999999999995" as="sourcePoint" />
            <mxPoint x="394.04" y="280.23999999999995" as="targetPoint" />
          </mxGeometry>
        </mxCell>
        <mxCell id="80rmoIpg4Wi10GQ2Rf75-25" value="&lt;font style=&quot;font-size: 10px;&quot;&gt;Redirects to Platform Service&lt;/font&gt;" style="text;html=1;align=center;verticalAlign=middle;resizable=0;points=[];autosize=1;strokeColor=none;fillColor=none;" parent="1" vertex="1">
          <mxGeometry x="220.5" y="255" width="150" height="30" as="geometry" />
        </mxCell>
        <mxCell id="80rmoIpg4Wi10GQ2Rf75-28" value="&lt;b&gt;OAUTH-SERVER&lt;/b&gt;" style="text;html=1;align=center;verticalAlign=middle;resizable=0;points=[];autosize=1;strokeColor=none;fillColor=none;rotation=-90;" parent="1" vertex="1">
          <mxGeometry x="464.5" y="113" width="120" height="30" as="geometry" />
        </mxCell>
        <mxCell id="80rmoIpg4Wi10GQ2Rf75-29" value="&lt;font style=&quot;font-size: 10px;&quot;&gt;Redirects Auth server&lt;/font&gt;" style="text;html=1;align=center;verticalAlign=middle;resizable=0;points=[];autosize=1;strokeColor=none;fillColor=none;" parent="1" vertex="1">
          <mxGeometry x="402.5" y="254" width="120" height="30" as="geometry" />
        </mxCell>
        <mxCell id="80rmoIpg4Wi10GQ2Rf75-33" value="" style="endArrow=none;dashed=1;html=1;rounded=0;" parent="1" edge="1">
          <mxGeometry width="50" height="50" relative="1" as="geometry">
            <mxPoint x="32.5" y="550" as="sourcePoint" />
            <mxPoint x="32.5" y="130" as="targetPoint" />
          </mxGeometry>
        </mxCell>
        <mxCell id="80rmoIpg4Wi10GQ2Rf75-34" value="" style="endArrow=classic;html=1;rounded=0;" parent="1" edge="1">
          <mxGeometry width="50" height="50" relative="1" as="geometry">
            <mxPoint x="33.5" y="390" as="sourcePoint" />
            <mxPoint x="513.5" y="390" as="targetPoint" />
          </mxGeometry>
        </mxCell>
        <mxCell id="80rmoIpg4Wi10GQ2Rf75-35" value="Login Validation" style="text;html=1;align=center;verticalAlign=middle;resizable=0;points=[];autosize=1;strokeColor=none;fillColor=none;" parent="1" vertex="1">
          <mxGeometry x="50.5" y="363" width="110" height="30" as="geometry" />
        </mxCell>
        <mxCell id="80rmoIpg4Wi10GQ2Rf75-36" value="" style="endArrow=classic;html=1;rounded=0;entryX=1;entryY=0.75;entryDx=0;entryDy=0;" parent="1" target="80rmoIpg4Wi10GQ2Rf75-3" edge="1">
          <mxGeometry width="50" height="50" relative="1" as="geometry">
            <mxPoint x="514.5" y="430" as="sourcePoint" />
            <mxPoint x="564.5" y="380" as="targetPoint" />
          </mxGeometry>
        </mxCell>
        <mxCell id="80rmoIpg4Wi10GQ2Rf75-37" value="Redirects to Platform service with Access Token" style="text;html=1;align=center;verticalAlign=middle;resizable=0;points=[];autosize=1;strokeColor=none;fillColor=none;" parent="1" vertex="1">
          <mxGeometry x="199.5" y="404" width="280" height="30" as="geometry" />
        </mxCell>
        <mxCell id="80rmoIpg4Wi10GQ2Rf75-40" value="" style="endArrow=classic;html=1;rounded=0;" parent="1" edge="1">
          <mxGeometry width="50" height="50" relative="1" as="geometry">
            <mxPoint x="173.5" y="440" as="sourcePoint" />
            <mxPoint x="393.5" y="440" as="targetPoint" />
          </mxGeometry>
        </mxCell>
        <mxCell id="80rmoIpg4Wi10GQ2Rf75-42" value="" style="endArrow=classic;html=1;rounded=0;entryX=1;entryY=0.75;entryDx=0;entryDy=0;exitX=0.05;exitY=0.832;exitDx=0;exitDy=0;exitPerimeter=0;" parent="1" source="80rmoIpg4Wi10GQ2Rf75-6" edge="1">
          <mxGeometry width="50" height="50" relative="1" as="geometry">
            <mxPoint x="513.5" y="469" as="sourcePoint" />
            <mxPoint x="172.5" y="469" as="targetPoint" />
          </mxGeometry>
        </mxCell>
        <mxCell id="80rmoIpg4Wi10GQ2Rf75-43" value="" style="endArrow=classic;html=1;rounded=0;" parent="1" edge="1">
          <mxGeometry width="50" height="50" relative="1" as="geometry">
            <mxPoint x="173.5" y="480" as="sourcePoint" />
            <mxPoint x="273.5" y="480" as="targetPoint" />
          </mxGeometry>
        </mxCell>
        <mxCell id="80rmoIpg4Wi10GQ2Rf75-44" value="&lt;font style=&quot;font-size: 8px;&quot;&gt;&lt;b&gt;http://domain/container-app&lt;/b&gt;&lt;/font&gt;" style="text;html=1;align=center;verticalAlign=middle;resizable=0;points=[];autosize=1;strokeColor=none;fillColor=none;" parent="1" vertex="1">
          <mxGeometry x="34.5" y="92" width="130" height="30" as="geometry" />
        </mxCell>
        <mxCell id="80rmoIpg4Wi10GQ2Rf75-45" value="&lt;font style=&quot;font-size: 8px;&quot;&gt;Gateway captures access token&amp;nbsp;&lt;/font&gt;&lt;div&gt;&lt;font style=&quot;font-size: 8px;&quot;&gt;and stores as &lt;b&gt;httpOnly &lt;/b&gt;cookie&lt;/font&gt;&lt;/div&gt;" style="text;html=1;align=center;verticalAlign=middle;resizable=0;points=[];autosize=1;strokeColor=none;fillColor=none;" parent="1" vertex="1">
          <mxGeometry x="162.5" y="474" width="140" height="40" as="geometry" />
        </mxCell>
        <mxCell id="pHoPj_1X2IQjKwYX7QEu-1" value="&lt;h5&gt;&lt;p&gt;&lt;/p&gt;&lt;pre&gt;&lt;p&gt;&lt;/p&gt;&lt;p&gt;&lt;/p&gt;&lt;p&gt;&lt;/p&gt;&lt;ul&gt;&lt;li&gt;&lt;font style=&quot;font-size: 12px;&quot;&gt;Producer&lt;/font&gt;&lt;/li&gt;&lt;/ul&gt;&lt;ul&gt;&lt;li&gt;&lt;font style=&quot;font-size: 12px;&quot;&gt;Consumer&lt;/font&gt;&lt;/li&gt;&lt;/ul&gt;&lt;ul&gt;&lt;li&gt;&lt;font style=&quot;font-size: 12px;&quot;&gt;Broker&lt;/font&gt;&lt;/li&gt;&lt;/ul&gt;&lt;ul&gt;&lt;li&gt;&lt;font style=&quot;font-size: 12px;&quot;&gt;Cluster&lt;/font&gt;&lt;/li&gt;&lt;/ul&gt;&lt;ul&gt;&lt;li&gt;&lt;font style=&quot;font-size: 12px;&quot;&gt;Topic&lt;/font&gt;&lt;/li&gt;&lt;/ul&gt;&lt;ul&gt;&lt;li&gt;&lt;font style=&quot;font-size: 12px;&quot;&gt;Partition&lt;/font&gt;&lt;/li&gt;&lt;/ul&gt;&lt;ul&gt;&lt;li&gt;&lt;font style=&quot;font-size: 12px;&quot;&gt;Offset&lt;/font&gt;&lt;/li&gt;&lt;/ul&gt;&lt;ul&gt;&lt;li&gt;&lt;font style=&quot;font-size: 12px;&quot;&gt;Consumer Group&lt;/font&gt;&lt;/li&gt;&lt;/ul&gt;&lt;ul&gt;&lt;li&gt;&lt;font style=&quot;font-size: 12px;&quot;&gt;Zookeeper&lt;/font&gt;&lt;/li&gt;&lt;/ul&gt;&lt;p&gt;&lt;/p&gt;&lt;p&gt;&lt;/p&gt;&lt;p&gt;&lt;/p&gt;&lt;/pre&gt;&lt;p&gt;&lt;/p&gt;&lt;/h5&gt;" style="text;html=1;align=left;verticalAlign=middle;whiteSpace=wrap;rounded=0;" parent="1" vertex="1">
          <mxGeometry x="-330" y="740.5" width="229" height="70" as="geometry" />
        </mxCell>
        <mxCell id="pHoPj_1X2IQjKwYX7QEu-265" style="edgeStyle=orthogonalEdgeStyle;rounded=0;orthogonalLoop=1;jettySize=auto;html=1;exitX=0.5;exitY=0;exitDx=0;exitDy=0;exitPerimeter=0;entryX=0;entryY=0.5;entryDx=0;entryDy=0;" parent="1" source="pHoPj_1X2IQjKwYX7QEu-4" target="pHoPj_1X2IQjKwYX7QEu-36" edge="1">
          <mxGeometry relative="1" as="geometry" />
        </mxCell>
        <mxCell id="pHoPj_1X2IQjKwYX7QEu-4" value="" style="verticalLabelPosition=bottom;html=1;verticalAlign=top;align=center;strokeColor=none;fillColor=#00BEF2;shape=mxgraph.azure.laptop;pointerEvents=1;" parent="1" vertex="1">
          <mxGeometry x="275" y="889" width="50" height="30" as="geometry" />
        </mxCell>
        <mxCell id="pHoPj_1X2IQjKwYX7QEu-5" value="" style="verticalLabelPosition=bottom;html=1;verticalAlign=top;align=center;strokeColor=none;fillColor=#00BEF2;shape=mxgraph.azure.laptop;pointerEvents=1;" parent="1" vertex="1">
          <mxGeometry x="518" y="889.5" width="50" height="30" as="geometry" />
        </mxCell>
        <mxCell id="pHoPj_1X2IQjKwYX7QEu-7" style="edgeStyle=orthogonalEdgeStyle;rounded=0;orthogonalLoop=1;jettySize=auto;html=1;entryX=0.5;entryY=0;entryDx=0;entryDy=0;entryPerimeter=0;exitX=1;exitY=0.5;exitDx=0;exitDy=0;" parent="1" source="pHoPj_1X2IQjKwYX7QEu-36" target="pHoPj_1X2IQjKwYX7QEu-5" edge="1">
          <mxGeometry relative="1" as="geometry">
            <mxPoint x="510" y="831" as="sourcePoint" />
          </mxGeometry>
        </mxCell>
        <mxCell id="pHoPj_1X2IQjKwYX7QEu-11" value="" style="shape=message;html=1;html=1;outlineConnect=0;labelPosition=center;verticalLabelPosition=bottom;align=center;verticalAlign=top;" parent="1" vertex="1">
          <mxGeometry x="289" y="833" width="20" height="10" as="geometry" />
        </mxCell>
        <mxCell id="pHoPj_1X2IQjKwYX7QEu-14" value="" style="shape=message;html=1;html=1;outlineConnect=0;labelPosition=center;verticalLabelPosition=bottom;align=center;verticalAlign=top;" parent="1" vertex="1">
          <mxGeometry x="535" y="833" width="20" height="10" as="geometry" />
        </mxCell>
        <mxCell id="pHoPj_1X2IQjKwYX7QEu-15" value="&lt;font style=&quot;color: rgb(0, 0, 255);&quot; face=&quot;Lucida Console&quot;&gt;&lt;b style=&quot;&quot;&gt;Kafka Cluster&lt;/b&gt;&lt;/font&gt;" style="text;html=1;align=center;verticalAlign=middle;whiteSpace=wrap;rounded=0;fontSize=8;" parent="1" vertex="1">
          <mxGeometry x="381" y="727.9300000000001" width="89" height="30" as="geometry" />
        </mxCell>
        <mxCell id="pHoPj_1X2IQjKwYX7QEu-16" value="&lt;font face=&quot;Lucida Console&quot; style=&quot;font-size: 8px; color: rgb(102, 204, 0);&quot;&gt;Producer&lt;/font&gt;" style="text;html=1;align=center;verticalAlign=middle;whiteSpace=wrap;rounded=0;fontColor=#0000CC;" parent="1" vertex="1">
          <mxGeometry x="280" y="892" width="40" height="20" as="geometry" />
        </mxCell>
        <mxCell id="pHoPj_1X2IQjKwYX7QEu-17" value="&lt;font face=&quot;Lucida Console&quot; style=&quot;font-size: 8px; color: rgb(255, 102, 102);&quot;&gt;Consumer&lt;/font&gt;" style="text;html=1;align=center;verticalAlign=middle;whiteSpace=wrap;rounded=0;fontColor=#0000CC;" parent="1" vertex="1">
          <mxGeometry x="523" y="891.5" width="40" height="20" as="geometry" />
        </mxCell>
        <mxCell id="pHoPj_1X2IQjKwYX7QEu-18" value="" style="rounded=1;fillColor=#fff2cc;strokeColor=#d6b656;shadow=1;html=1;arcSize=4;sketch=1;hachureGap=4;pointerEvents=0;fontFamily=Architects Daughter;fontSource=https%3A%2F%2Ffonts.googleapis.com%2Fcss%3Ffamily%3DArchitects%2BDaughter;fontSize=20;align=left;" parent="1" vertex="1">
          <mxGeometry x="565" y="600" width="275" height="135" as="geometry" />
        </mxCell>
        <mxCell id="pHoPj_1X2IQjKwYX7QEu-19" value="" style="html=1;shadow=0;dashed=0;shape=mxgraph.atlassian.checkbox;fillColor=#36B37E;strokeColor=none;html=1;fontSize=14;fontStyle=0;labelPosition=right;align=left;spacingLeft=20;sketch=0;hachureGap=4;pointerEvents=0;fontFamily=Architects Daughter;fontSource=https%3A%2F%2Ffonts.googleapis.com%2Fcss%3Ffamily%3DArchitects%2BDaughter;" parent="pHoPj_1X2IQjKwYX7QEu-18" vertex="1">
          <mxGeometry width="14" height="14" relative="1" as="geometry">
            <mxPoint x="3" y="5" as="offset" />
          </mxGeometry>
        </mxCell>
        <mxCell id="pHoPj_1X2IQjKwYX7QEu-24" value="&lt;font face=&quot;Lucida Console&quot;&gt;&lt;b&gt;Broker&lt;/b&gt;&lt;/font&gt;" style="text;html=1;align=center;verticalAlign=middle;whiteSpace=wrap;rounded=0;" parent="pHoPj_1X2IQjKwYX7QEu-18" vertex="1">
          <mxGeometry x="24.364125560538113" y="4.899999999999999" width="43.07757847533632" height="14.875000000000002" as="geometry" />
        </mxCell>
        <mxCell id="pHoPj_1X2IQjKwYX7QEu-25" value="&lt;ul&gt;&lt;li&gt;&lt;font face=&quot;Comic Sans MS&quot; style=&quot;font-size: 8px;&quot;&gt;Broker is just &lt;b&gt;intermediate entity&lt;/b&gt; that &lt;b&gt;helps in message exchange between Producer and Consumer.&lt;/b&gt;&lt;/font&gt;&lt;/li&gt;&lt;li&gt;&lt;font face=&quot;Comic Sans MS&quot; style=&quot;font-size: 8px;&quot;&gt;It&#39;s Kafka server that&lt;b&gt; &lt;/b&gt;&lt;strong style=&quot;font-weight: bold;&quot; data-end=&quot;2049&quot; data-start=&quot;2022&quot;&gt;stores topic partitions&lt;/strong&gt; and handles read/write requests.&lt;/font&gt;&lt;/li&gt;&lt;li&gt;&lt;font face=&quot;Comic Sans MS&quot; style=&quot;font-size: 8px;&quot;&gt;Brokers communicate with each other to ensure fault tolerance.&lt;/font&gt;&lt;/li&gt;&lt;/ul&gt;" style="text;html=1;align=left;verticalAlign=middle;whiteSpace=wrap;rounded=0;" parent="pHoPj_1X2IQjKwYX7QEu-18" vertex="1">
          <mxGeometry x="-24.5" y="9.675" width="296.5" height="107.325" as="geometry" />
        </mxCell>
        <mxCell id="pHoPj_1X2IQjKwYX7QEu-31" value="&lt;b&gt;&lt;font style=&quot;font-size: 8px;&quot; face=&quot;Lucida Console&quot;&gt;Broker&lt;/font&gt;&lt;/b&gt;" style="text;html=1;align=center;verticalAlign=middle;whiteSpace=wrap;rounded=0;" parent="1" vertex="1">
          <mxGeometry x="382.35" y="803" width="50" height="15" as="geometry" />
        </mxCell>
        <mxCell id="pHoPj_1X2IQjKwYX7QEu-32" value="" style="shape=cylinder3;whiteSpace=wrap;html=1;boundedLbl=1;backgroundOutline=1;size=15;rotation=-90;fillColor=#fff2cc;strokeColor=#d6b656;" parent="1" vertex="1">
          <mxGeometry x="393.63" y="721.93" width="42.87" height="119.73" as="geometry" />
        </mxCell>
        <mxCell id="pHoPj_1X2IQjKwYX7QEu-33" value="&lt;b&gt;&lt;font style=&quot;font-size: 8px;&quot; face=&quot;Lucida Console&quot;&gt;Broker&lt;/font&gt;&lt;/b&gt;" style="text;html=1;align=center;verticalAlign=middle;whiteSpace=wrap;rounded=0;" parent="1" vertex="1">
          <mxGeometry x="393" y="755.43" width="30" height="15" as="geometry" />
        </mxCell>
        <mxCell id="pHoPj_1X2IQjKwYX7QEu-34" value="" style="shape=cylinder3;whiteSpace=wrap;html=1;boundedLbl=1;backgroundOutline=1;size=15;rotation=-90;fillColor=#fff2cc;strokeColor=#d6b656;" parent="1" vertex="1">
          <mxGeometry x="393.63" y="818.9299999999998" width="42.87" height="119.73" as="geometry" />
        </mxCell>
        <mxCell id="pHoPj_1X2IQjKwYX7QEu-35" value="&lt;b&gt;&lt;font style=&quot;font-size: 8px;&quot; face=&quot;Lucida Console&quot;&gt;Broker&lt;/font&gt;&lt;/b&gt;" style="text;html=1;align=center;verticalAlign=middle;whiteSpace=wrap;rounded=0;" parent="1" vertex="1">
          <mxGeometry x="380" y="853" width="47" height="14" as="geometry" />
        </mxCell>
        <mxCell id="pHoPj_1X2IQjKwYX7QEu-37" value="" style="rounded=1;fillColor=#dae8fc;strokeColor=#6c8ebf;shadow=1;html=1;arcSize=4;sketch=1;hachureGap=4;pointerEvents=0;fontFamily=Architects Daughter;fontSource=https%3A%2F%2Ffonts.googleapis.com%2Fcss%3Ffamily%3DArchitects%2BDaughter;fontSize=20;align=left;" parent="1" vertex="1">
          <mxGeometry x="566" y="746" width="275" height="59" as="geometry" />
        </mxCell>
        <mxCell id="pHoPj_1X2IQjKwYX7QEu-38" value="" style="html=1;shadow=0;dashed=0;shape=mxgraph.atlassian.checkbox;fillColor=#36B37E;strokeColor=none;html=1;fontSize=14;fontStyle=0;labelPosition=right;align=left;spacingLeft=20;sketch=0;hachureGap=4;pointerEvents=0;fontFamily=Architects Daughter;fontSource=https%3A%2F%2Ffonts.googleapis.com%2Fcss%3Ffamily%3DArchitects%2BDaughter;" parent="pHoPj_1X2IQjKwYX7QEu-37" vertex="1">
          <mxGeometry width="14" height="14" relative="1" as="geometry">
            <mxPoint x="3" y="5" as="offset" />
          </mxGeometry>
        </mxCell>
        <mxCell id="pHoPj_1X2IQjKwYX7QEu-39" value="&lt;font face=&quot;Lucida Console&quot;&gt;&lt;b&gt;Cluster&lt;/b&gt;&lt;/font&gt;" style="text;html=1;align=center;verticalAlign=middle;whiteSpace=wrap;rounded=0;" parent="pHoPj_1X2IQjKwYX7QEu-37" vertex="1">
          <mxGeometry x="27.2916318309645" y="9.117460317460317" width="36.506422436725686" height="6.555555555555556" as="geometry" />
        </mxCell>
        <mxCell id="pHoPj_1X2IQjKwYX7QEu-40" value="&lt;ul&gt;&lt;li&gt;&lt;span style=&quot;font-size: 8px; font-family: &amp;quot;Comic Sans MS&amp;quot;; background-color: transparent; color: light-dark(rgb(0, 0, 0), rgb(255, 255, 255));&quot;&gt;A &lt;b&gt;cluster is a group of Kafka brokers&lt;/b&gt; working together.&lt;/span&gt;&lt;/li&gt;&lt;li&gt;&lt;span style=&quot;font-size: 8px; font-family: &amp;quot;Comic Sans MS&amp;quot;; background-color: transparent; color: light-dark(rgb(0, 0, 0), rgb(255, 255, 255));&quot;&gt;Kafka ensures data replication and fault tolerance across the cluster.&lt;/span&gt;&lt;/li&gt;&lt;/ul&gt;" style="text;html=1;align=left;verticalAlign=middle;whiteSpace=wrap;rounded=0;" parent="pHoPj_1X2IQjKwYX7QEu-37" vertex="1">
          <mxGeometry x="-27.966101694915253" y="25.285714285714285" width="302.96610169491527" height="25.285714285714285" as="geometry" />
        </mxCell>
        <mxCell id="pHoPj_1X2IQjKwYX7QEu-45" value="&lt;font style=&quot;color: light-dark(rgb(249, 6, 6), rgb(237, 237, 237)); font-size: 7px;&quot; face=&quot;Comic Sans MS&quot;&gt;(Follower)&lt;/font&gt;" style="text;html=1;align=center;verticalAlign=middle;whiteSpace=wrap;rounded=0;" parent="1" vertex="1">
          <mxGeometry x="413" y="806" width="50" height="10" as="geometry" />
        </mxCell>
        <mxCell id="pHoPj_1X2IQjKwYX7QEu-46" value="&lt;font style=&quot;color: light-dark(rgb(249, 6, 6), rgb(237, 237, 237)); font-size: 7px;&quot; face=&quot;Comic Sans MS&quot;&gt;(Follower)&lt;/font&gt;" style="text;html=1;align=center;verticalAlign=middle;whiteSpace=wrap;rounded=0;" parent="1" vertex="1">
          <mxGeometry x="410" y="855" width="50" height="10" as="geometry" />
        </mxCell>
        <mxCell id="pHoPj_1X2IQjKwYX7QEu-47" value="&lt;font style=&quot;font-size: 8px; color: light-dark(rgb(249, 6, 6), rgb(237, 237, 237));&quot; face=&quot;Comic Sans MS&quot;&gt;(&lt;b&gt;Leader&lt;/b&gt;)&lt;/font&gt;" style="text;html=1;align=center;verticalAlign=middle;whiteSpace=wrap;rounded=0;" parent="1" vertex="1">
          <mxGeometry x="414" y="757.93" width="50" height="10" as="geometry" />
        </mxCell>
        <mxCell id="pHoPj_1X2IQjKwYX7QEu-56" value="" style="strokeWidth=0.5;html=1;shape=mxgraph.flowchart.stored_data;whiteSpace=wrap;fillColor=#d0cee2;strokeColor=#56517e;" parent="1" vertex="1">
          <mxGeometry x="387.65" y="776.43" width="42.35" height="19.57" as="geometry" />
        </mxCell>
        <mxCell id="pHoPj_1X2IQjKwYX7QEu-60" value="&lt;font style=&quot;line-height: 0%; font-size: 4px; color: light-dark(rgb(0, 0, 0), rgb(50, 50, 0));&quot; face=&quot;Comic Sans MS&quot;&gt;Booking Topic&lt;/font&gt;" style="text;html=1;align=center;verticalAlign=middle;whiteSpace=wrap;rounded=0;imageAspect=1;fillColor=none;" parent="1" vertex="1">
          <mxGeometry x="390" y="765.36" width="37" height="11" as="geometry" />
        </mxCell>
        <mxCell id="pHoPj_1X2IQjKwYX7QEu-62" value="" style="rounded=1;fillColor=#d0cee2;strokeColor=#56517e;shadow=1;html=1;arcSize=4;sketch=1;hachureGap=4;pointerEvents=0;fontFamily=Architects Daughter;fontSource=https%3A%2F%2Ffonts.googleapis.com%2Fcss%3Ffamily%3DArchitects%2BDaughter;fontSize=20;align=left;" parent="1" vertex="1">
          <mxGeometry x="569" y="819" width="275" height="100" as="geometry" />
        </mxCell>
        <mxCell id="pHoPj_1X2IQjKwYX7QEu-63" value="" style="html=1;shadow=0;dashed=0;shape=mxgraph.atlassian.checkbox;fillColor=#36B37E;strokeColor=none;html=1;fontSize=14;fontStyle=0;labelPosition=right;align=left;spacingLeft=20;sketch=0;hachureGap=4;pointerEvents=0;fontFamily=Architects Daughter;fontSource=https%3A%2F%2Ffonts.googleapis.com%2Fcss%3Ffamily%3DArchitects%2BDaughter;" parent="pHoPj_1X2IQjKwYX7QEu-62" vertex="1">
          <mxGeometry width="14" height="14" relative="1" as="geometry">
            <mxPoint x="3" y="5" as="offset" />
          </mxGeometry>
        </mxCell>
        <mxCell id="pHoPj_1X2IQjKwYX7QEu-64" value="&lt;b style=&quot;&quot;&gt;&lt;font face=&quot;Comic Sans MS&quot;&gt;Consumer Group&lt;/font&gt;&lt;/b&gt;" style="text;html=1;align=center;verticalAlign=middle;whiteSpace=wrap;rounded=0;" parent="pHoPj_1X2IQjKwYX7QEu-62" vertex="1">
          <mxGeometry x="9.29" y="6.68" width="111.71" height="10.56" as="geometry" />
        </mxCell>
        <mxCell id="pHoPj_1X2IQjKwYX7QEu-65" value="&lt;ul&gt;&lt;li&gt;&lt;span style=&quot;background-color: transparent; color: light-dark(rgb(0, 0, 0), rgb(255, 255, 255)); font-family: &amp;quot;Comic Sans MS&amp;quot;; font-size: 8px;&quot;&gt;&lt;b&gt;A logical channel&lt;/b&gt; where &lt;b&gt;messages &lt;/b&gt;are &lt;b&gt;sent&lt;/b&gt;. So that consumers can subscribe to topics.&amp;nbsp;&lt;/span&gt;&lt;/li&gt;&lt;li data-end=&quot;1143&quot; data-start=&quot;1075&quot;&gt;&lt;font style=&quot;font-size: 8px;&quot; face=&quot;Comic Sans MS&quot;&gt;Topics will be divided into multiple &lt;strong data-end=&quot;1124&quot; data-start=&quot;1110&quot;&gt;partitions&lt;/strong&gt; for scalability.&lt;/font&gt;&lt;/li&gt;&lt;li&gt;&lt;font style=&quot;font-size: 8px;&quot; face=&quot;Comic Sans MS&quot;&gt;Messages in a topic are immutable and stored for a configured retention period.&lt;/font&gt;&lt;/li&gt;&lt;/ul&gt;" style="text;html=1;align=left;verticalAlign=middle;whiteSpace=wrap;rounded=0;" parent="pHoPj_1X2IQjKwYX7QEu-62" vertex="1">
          <mxGeometry x="-26.97" y="17" width="302.97" height="80" as="geometry" />
        </mxCell>
        <mxCell id="pHoPj_1X2IQjKwYX7QEu-81" value="" style="strokeWidth=0.5;html=1;shape=mxgraph.flowchart.stored_data;whiteSpace=wrap;fillColor=#b0e3e6;strokeColor=#0e8088;" parent="1" vertex="1">
          <mxGeometry x="427" y="776.3599999999999" width="42.35" height="19.57" as="geometry" />
        </mxCell>
        <mxCell id="pHoPj_1X2IQjKwYX7QEu-162" value="&lt;span style=&quot;font-family: &amp;quot;Comic Sans MS&amp;quot;; font-size: 1px;&quot;&gt;&lt;font style=&quot;color: rgb(0, 0, 0);&quot;&gt;BoookId#2&lt;/font&gt;&lt;/span&gt;" style="text;html=1;align=center;verticalAlign=middle;whiteSpace=wrap;rounded=0;" parent="1" vertex="1">
          <mxGeometry x="400.75" y="781" width="14.37" height="7" as="geometry" />
        </mxCell>
        <mxCell id="pHoPj_1X2IQjKwYX7QEu-164" value="&lt;font style=&quot;color: rgb(0, 0, 0);&quot; face=&quot;Comic Sans MS&quot;&gt;&lt;span style=&quot;font-size: 1px;&quot;&gt;BookId#3&lt;/span&gt;&lt;/font&gt;" style="text;html=1;align=center;verticalAlign=middle;whiteSpace=wrap;rounded=0;" parent="1" vertex="1">
          <mxGeometry x="413" y="781" width="14.37" height="7" as="geometry" />
        </mxCell>
        <mxCell id="pHoPj_1X2IQjKwYX7QEu-189" value="&lt;font style=&quot;line-height: 0%; font-size: 4px; color: rgb(0, 0, 0);&quot; face=&quot;Comic Sans MS&quot;&gt;Payment Topic&lt;/font&gt;" style="text;html=1;align=center;verticalAlign=middle;whiteSpace=wrap;rounded=0;imageAspect=1;fillColor=none;" parent="1" vertex="1">
          <mxGeometry x="429.67" y="765.36" width="37" height="11" as="geometry" />
        </mxCell>
        <mxCell id="pHoPj_1X2IQjKwYX7QEu-192" value="" style="shape=message;html=1;html=1;outlineConnect=0;labelPosition=center;verticalLabelPosition=bottom;align=center;verticalAlign=top;strokeWidth=0.2;fillColor=none;" parent="1" vertex="1">
          <mxGeometry x="391.57" y="786.78" width="10" height="3.44" as="geometry" />
        </mxCell>
        <mxCell id="pHoPj_1X2IQjKwYX7QEu-74" value="&lt;font style=&quot;color: rgb(0, 0, 0);&quot; face=&quot;Comic Sans MS&quot;&gt;&lt;span style=&quot;font-size: 1px;&quot;&gt;BoookId#1&lt;/span&gt;&lt;/font&gt;" style="text;html=1;align=center;verticalAlign=middle;whiteSpace=wrap;rounded=0;" parent="1" vertex="1">
          <mxGeometry x="390.38000000000005" y="781" width="14.37" height="7" as="geometry" />
        </mxCell>
        <mxCell id="pHoPj_1X2IQjKwYX7QEu-193" value="" style="shape=message;html=1;html=1;outlineConnect=0;labelPosition=center;verticalLabelPosition=bottom;align=center;verticalAlign=top;strokeWidth=0.2;fillColor=none;" parent="1" vertex="1">
          <mxGeometry x="403" y="786.78" width="10" height="3.44" as="geometry" />
        </mxCell>
        <mxCell id="pHoPj_1X2IQjKwYX7QEu-194" value="" style="shape=message;html=1;html=1;outlineConnect=0;labelPosition=center;verticalLabelPosition=bottom;align=center;verticalAlign=top;strokeWidth=0.2;fillColor=none;" parent="1" vertex="1">
          <mxGeometry x="414" y="786.78" width="10" height="3.44" as="geometry" />
        </mxCell>
        <mxCell id="pHoPj_1X2IQjKwYX7QEu-195" value="&lt;font style=&quot;color: rgb(0, 0, 0);&quot; face=&quot;Comic Sans MS&quot;&gt;&lt;span style=&quot;font-size: 1px;&quot;&gt;PaymentId#1&lt;/span&gt;&lt;/font&gt;" style="text;html=1;align=center;verticalAlign=middle;whiteSpace=wrap;rounded=0;" parent="1" vertex="1">
          <mxGeometry x="427.7900000000001" y="781.89" width="14.37" height="7" as="geometry" />
        </mxCell>
        <mxCell id="pHoPj_1X2IQjKwYX7QEu-196" value="" style="shape=message;html=1;html=1;outlineConnect=0;labelPosition=center;verticalLabelPosition=bottom;align=center;verticalAlign=top;strokeWidth=0.2;fillColor=none;" parent="1" vertex="1">
          <mxGeometry x="429.98" y="786.67" width="10" height="3.44" as="geometry" />
        </mxCell>
        <mxCell id="pHoPj_1X2IQjKwYX7QEu-197" value="" style="shape=message;html=1;html=1;outlineConnect=0;labelPosition=center;verticalLabelPosition=bottom;align=center;verticalAlign=top;strokeWidth=0.2;fillColor=none;" parent="1" vertex="1">
          <mxGeometry x="440.41" y="786.67" width="10" height="3.44" as="geometry" />
        </mxCell>
        <mxCell id="pHoPj_1X2IQjKwYX7QEu-198" value="&lt;span style=&quot;font-family: &amp;quot;Comic Sans MS&amp;quot;; font-size: 1px;&quot;&gt;&lt;font style=&quot;color: rgb(0, 0, 0);&quot;&gt;PaymentId#2&lt;/font&gt;&lt;/span&gt;" style="text;html=1;align=center;verticalAlign=middle;whiteSpace=wrap;rounded=0;" parent="1" vertex="1">
          <mxGeometry x="439.16" y="781.89" width="14.37" height="7" as="geometry" />
        </mxCell>
        <mxCell id="pHoPj_1X2IQjKwYX7QEu-199" value="" style="shape=message;html=1;html=1;outlineConnect=0;labelPosition=center;verticalLabelPosition=bottom;align=center;verticalAlign=top;strokeWidth=0.2;fillColor=none;" parent="1" vertex="1">
          <mxGeometry x="451.41" y="786.67" width="10" height="3.44" as="geometry" />
        </mxCell>
        <mxCell id="pHoPj_1X2IQjKwYX7QEu-200" value="&lt;font style=&quot;color: rgb(0, 0, 0);&quot; face=&quot;Comic Sans MS&quot;&gt;&lt;span style=&quot;font-size: 1px;&quot;&gt;PaymentId#3&lt;/span&gt;&lt;/font&gt;" style="text;html=1;align=center;verticalAlign=middle;whiteSpace=wrap;rounded=0;" parent="1" vertex="1">
          <mxGeometry x="449.41" y="781.89" width="14.37" height="7" as="geometry" />
        </mxCell>
        <mxCell id="pHoPj_1X2IQjKwYX7QEu-201" value="&lt;font style=&quot;font-size: 5px; color: light-dark(rgb(131, 63, 237), rgb(50, 50, 0));&quot; face=&quot;Comic Sans MS&quot;&gt;&lt;b style=&quot;&quot;&gt;Partition #0&lt;/b&gt;&lt;/font&gt;" style="text;html=1;align=center;verticalAlign=middle;whiteSpace=wrap;rounded=0;" parent="1" vertex="1">
          <mxGeometry x="388" y="772.86" width="40" height="10" as="geometry" />
        </mxCell>
        <mxCell id="pHoPj_1X2IQjKwYX7QEu-202" value="&lt;font style=&quot;font-size: 5px; color: light-dark(rgb(0, 153, 77), rgb(50, 50, 0));&quot; face=&quot;Comic Sans MS&quot;&gt;&lt;b style=&quot;&quot;&gt;Partition #1&lt;/b&gt;&lt;/font&gt;" style="text;html=1;align=center;verticalAlign=middle;whiteSpace=wrap;rounded=0;" parent="1" vertex="1">
          <mxGeometry x="428.18" y="772.86" width="40" height="10" as="geometry" />
        </mxCell>
        <mxCell id="pHoPj_1X2IQjKwYX7QEu-211" value="" style="strokeWidth=0.5;html=1;shape=mxgraph.flowchart.stored_data;whiteSpace=wrap;fillColor=#d0cee2;strokeColor=#56517e;" parent="1" vertex="1">
          <mxGeometry x="386.65" y="825.43" width="42.35" height="19.57" as="geometry" />
        </mxCell>
        <mxCell id="pHoPj_1X2IQjKwYX7QEu-219" value="" style="strokeWidth=0.5;html=1;shape=mxgraph.flowchart.stored_data;whiteSpace=wrap;fillColor=#b0e3e6;strokeColor=#0e8088;" parent="1" vertex="1">
          <mxGeometry x="426" y="825.3599999999999" width="42.35" height="19.57" as="geometry" />
        </mxCell>
        <mxCell id="pHoPj_1X2IQjKwYX7QEu-203" value="&lt;font style=&quot;line-height: 0%; font-size: 4px; color: light-dark(rgb(0, 0, 0), rgb(50, 50, 0));&quot; face=&quot;Comic Sans MS&quot;&gt;Booking Topic&lt;/font&gt;" style="text;html=1;align=center;verticalAlign=middle;whiteSpace=wrap;rounded=0;imageAspect=1;fillColor=none;" parent="1" vertex="1">
          <mxGeometry x="390" y="814.36" width="37" height="11" as="geometry" />
        </mxCell>
        <mxCell id="pHoPj_1X2IQjKwYX7QEu-204" value="&lt;font style=&quot;color: rgb(0, 0, 0);&quot; face=&quot;Comic Sans MS&quot;&gt;&lt;span style=&quot;font-size: 1px;&quot;&gt;BoookId#1&lt;/span&gt;&lt;/font&gt;" style="text;html=1;align=center;verticalAlign=middle;whiteSpace=wrap;rounded=0;" parent="1" vertex="1">
          <mxGeometry x="390.38000000000005" y="830" width="14.37" height="7" as="geometry" />
        </mxCell>
        <mxCell id="pHoPj_1X2IQjKwYX7QEu-205" value="" style="shape=message;html=1;html=1;outlineConnect=0;labelPosition=center;verticalLabelPosition=bottom;align=center;verticalAlign=top;strokeWidth=0.2;fillColor=none;" parent="1" vertex="1">
          <mxGeometry x="391.57" y="835.78" width="10" height="3.44" as="geometry" />
        </mxCell>
        <mxCell id="pHoPj_1X2IQjKwYX7QEu-206" value="" style="shape=message;html=1;html=1;outlineConnect=0;labelPosition=center;verticalLabelPosition=bottom;align=center;verticalAlign=top;strokeWidth=0.2;fillColor=none;" parent="1" vertex="1">
          <mxGeometry x="403" y="835.78" width="10" height="3.44" as="geometry" />
        </mxCell>
        <mxCell id="pHoPj_1X2IQjKwYX7QEu-207" value="&lt;font style=&quot;font-size: 5px; color: light-dark(rgb(131, 63, 237), rgb(50, 50, 0));&quot; face=&quot;Comic Sans MS&quot;&gt;&lt;b style=&quot;&quot;&gt;Partition #0&lt;/b&gt;&lt;/font&gt;" style="text;html=1;align=center;verticalAlign=middle;whiteSpace=wrap;rounded=0;" parent="1" vertex="1">
          <mxGeometry x="388" y="821.86" width="40" height="10" as="geometry" />
        </mxCell>
        <mxCell id="pHoPj_1X2IQjKwYX7QEu-208" value="&lt;span style=&quot;font-family: &amp;quot;Comic Sans MS&amp;quot;; font-size: 1px;&quot;&gt;&lt;font style=&quot;color: rgb(0, 0, 0);&quot;&gt;BoookId#2&lt;/font&gt;&lt;/span&gt;" style="text;html=1;align=center;verticalAlign=middle;whiteSpace=wrap;rounded=0;" parent="1" vertex="1">
          <mxGeometry x="400.75" y="830" width="14.37" height="7" as="geometry" />
        </mxCell>
        <mxCell id="pHoPj_1X2IQjKwYX7QEu-209" value="" style="shape=message;html=1;html=1;outlineConnect=0;labelPosition=center;verticalLabelPosition=bottom;align=center;verticalAlign=top;strokeWidth=0.2;fillColor=none;" parent="1" vertex="1">
          <mxGeometry x="414" y="835.78" width="10" height="3.44" as="geometry" />
        </mxCell>
        <mxCell id="pHoPj_1X2IQjKwYX7QEu-210" value="&lt;font style=&quot;color: rgb(0, 0, 0);&quot; face=&quot;Comic Sans MS&quot;&gt;&lt;span style=&quot;font-size: 1px;&quot;&gt;BookId#3&lt;/span&gt;&lt;/font&gt;" style="text;html=1;align=center;verticalAlign=middle;whiteSpace=wrap;rounded=0;" parent="1" vertex="1">
          <mxGeometry x="413" y="830" width="14.37" height="7" as="geometry" />
        </mxCell>
        <mxCell id="pHoPj_1X2IQjKwYX7QEu-212" value="&lt;font style=&quot;font-size: 5px; color: light-dark(rgb(0, 153, 77), rgb(50, 50, 0));&quot; face=&quot;Comic Sans MS&quot;&gt;&lt;b style=&quot;&quot;&gt;Partition #1&lt;/b&gt;&lt;/font&gt;" style="text;html=1;align=center;verticalAlign=middle;whiteSpace=wrap;rounded=0;" parent="1" vertex="1">
          <mxGeometry x="428.18" y="821.86" width="40" height="10" as="geometry" />
        </mxCell>
        <mxCell id="pHoPj_1X2IQjKwYX7QEu-213" value="&lt;font style=&quot;line-height: 0%; font-size: 4px; color: rgb(0, 0, 0);&quot; face=&quot;Comic Sans MS&quot;&gt;Payment Topic&lt;/font&gt;" style="text;html=1;align=center;verticalAlign=middle;whiteSpace=wrap;rounded=0;imageAspect=1;fillColor=none;" parent="1" vertex="1">
          <mxGeometry x="429.67" y="814.36" width="37" height="11" as="geometry" />
        </mxCell>
        <mxCell id="pHoPj_1X2IQjKwYX7QEu-214" value="" style="shape=message;html=1;html=1;outlineConnect=0;labelPosition=center;verticalLabelPosition=bottom;align=center;verticalAlign=top;strokeWidth=0.2;fillColor=none;" parent="1" vertex="1">
          <mxGeometry x="429.98" y="835.67" width="10" height="3.44" as="geometry" />
        </mxCell>
        <mxCell id="pHoPj_1X2IQjKwYX7QEu-215" value="&lt;font style=&quot;color: rgb(0, 0, 0);&quot; face=&quot;Comic Sans MS&quot;&gt;&lt;span style=&quot;font-size: 1px;&quot;&gt;PaymentId#1&lt;/span&gt;&lt;/font&gt;" style="text;html=1;align=center;verticalAlign=middle;whiteSpace=wrap;rounded=0;" parent="1" vertex="1">
          <mxGeometry x="427.7900000000001" y="830.89" width="14.37" height="7" as="geometry" />
        </mxCell>
        <mxCell id="pHoPj_1X2IQjKwYX7QEu-216" value="&lt;span style=&quot;font-family: &amp;quot;Comic Sans MS&amp;quot;; font-size: 1px;&quot;&gt;&lt;font style=&quot;color: rgb(0, 0, 0);&quot;&gt;PaymentId#2&lt;/font&gt;&lt;/span&gt;" style="text;html=1;align=center;verticalAlign=middle;whiteSpace=wrap;rounded=0;" parent="1" vertex="1">
          <mxGeometry x="439.16" y="830.89" width="14.37" height="7" as="geometry" />
        </mxCell>
        <mxCell id="pHoPj_1X2IQjKwYX7QEu-217" value="&lt;font style=&quot;color: rgb(0, 0, 0);&quot; face=&quot;Comic Sans MS&quot;&gt;&lt;span style=&quot;font-size: 1px;&quot;&gt;PaymentId#3&lt;/span&gt;&lt;/font&gt;" style="text;html=1;align=center;verticalAlign=middle;whiteSpace=wrap;rounded=0;" parent="1" vertex="1">
          <mxGeometry x="449.41" y="830.89" width="14.37" height="7" as="geometry" />
        </mxCell>
        <mxCell id="pHoPj_1X2IQjKwYX7QEu-218" value="" style="shape=message;html=1;html=1;outlineConnect=0;labelPosition=center;verticalLabelPosition=bottom;align=center;verticalAlign=top;strokeWidth=0.2;fillColor=none;" parent="1" vertex="1">
          <mxGeometry x="451.41" y="835.67" width="10" height="3.44" as="geometry" />
        </mxCell>
        <mxCell id="pHoPj_1X2IQjKwYX7QEu-220" value="" style="shape=message;html=1;html=1;outlineConnect=0;labelPosition=center;verticalLabelPosition=bottom;align=center;verticalAlign=top;strokeWidth=0.2;fillColor=none;" parent="1" vertex="1">
          <mxGeometry x="440.41" y="835.67" width="10" height="3.44" as="geometry" />
        </mxCell>
        <mxCell id="pHoPj_1X2IQjKwYX7QEu-221" value="&lt;font style=&quot;line-height: 0%; font-size: 4px; color: light-dark(rgb(0, 0, 0), rgb(50, 50, 0));&quot; face=&quot;Comic Sans MS&quot;&gt;Booking Topic&lt;/font&gt;" style="text;html=1;align=center;verticalAlign=middle;whiteSpace=wrap;rounded=0;imageAspect=1;fillColor=none;" parent="1" vertex="1">
          <mxGeometry x="390" y="860.36" width="37" height="11" as="geometry" />
        </mxCell>
        <mxCell id="pHoPj_1X2IQjKwYX7QEu-225" value="" style="strokeWidth=0.5;html=1;shape=mxgraph.flowchart.stored_data;whiteSpace=wrap;fillColor=#d0cee2;strokeColor=#56517e;" parent="1" vertex="1">
          <mxGeometry x="387.65" y="871.43" width="42.35" height="19.57" as="geometry" />
        </mxCell>
        <mxCell id="pHoPj_1X2IQjKwYX7QEu-230" value="&lt;font style=&quot;line-height: 0%; font-size: 4px; color: rgb(0, 0, 0);&quot; face=&quot;Comic Sans MS&quot;&gt;Payment Topic&lt;/font&gt;" style="text;html=1;align=center;verticalAlign=middle;whiteSpace=wrap;rounded=0;imageAspect=1;fillColor=none;" parent="1" vertex="1">
          <mxGeometry x="429.67" y="860.36" width="37" height="11" as="geometry" />
        </mxCell>
        <mxCell id="pHoPj_1X2IQjKwYX7QEu-238" value="" style="strokeWidth=0.5;html=1;shape=mxgraph.flowchart.stored_data;whiteSpace=wrap;fillColor=#b0e3e6;strokeColor=#0e8088;" parent="1" vertex="1">
          <mxGeometry x="427" y="871.3599999999999" width="42.35" height="19.57" as="geometry" />
        </mxCell>
        <mxCell id="pHoPj_1X2IQjKwYX7QEu-222" value="&lt;font style=&quot;font-size: 5px; color: light-dark(rgb(131, 63, 237), rgb(50, 50, 0));&quot; face=&quot;Comic Sans MS&quot;&gt;&lt;b style=&quot;&quot;&gt;Partition #0&lt;/b&gt;&lt;/font&gt;" style="text;html=1;align=center;verticalAlign=middle;whiteSpace=wrap;rounded=0;" parent="1" vertex="1">
          <mxGeometry x="388" y="867.86" width="40" height="10" as="geometry" />
        </mxCell>
        <mxCell id="pHoPj_1X2IQjKwYX7QEu-223" value="&lt;font style=&quot;color: rgb(0, 0, 0);&quot; face=&quot;Comic Sans MS&quot;&gt;&lt;span style=&quot;font-size: 1px;&quot;&gt;BoookId#1&lt;/span&gt;&lt;/font&gt;" style="text;html=1;align=center;verticalAlign=middle;whiteSpace=wrap;rounded=0;" parent="1" vertex="1">
          <mxGeometry x="390.38000000000005" y="876" width="14.37" height="7" as="geometry" />
        </mxCell>
        <mxCell id="pHoPj_1X2IQjKwYX7QEu-224" value="" style="shape=message;html=1;html=1;outlineConnect=0;labelPosition=center;verticalLabelPosition=bottom;align=center;verticalAlign=top;strokeWidth=0.2;fillColor=none;" parent="1" vertex="1">
          <mxGeometry x="391.57" y="881.78" width="10" height="3.44" as="geometry" />
        </mxCell>
        <mxCell id="pHoPj_1X2IQjKwYX7QEu-226" value="" style="shape=message;html=1;html=1;outlineConnect=0;labelPosition=center;verticalLabelPosition=bottom;align=center;verticalAlign=top;strokeWidth=0.2;fillColor=none;" parent="1" vertex="1">
          <mxGeometry x="403" y="881.78" width="10" height="3.44" as="geometry" />
        </mxCell>
        <mxCell id="pHoPj_1X2IQjKwYX7QEu-227" value="&lt;span style=&quot;font-family: &amp;quot;Comic Sans MS&amp;quot;; font-size: 1px;&quot;&gt;&lt;font style=&quot;color: rgb(0, 0, 0);&quot;&gt;BoookId#2&lt;/font&gt;&lt;/span&gt;" style="text;html=1;align=center;verticalAlign=middle;whiteSpace=wrap;rounded=0;" parent="1" vertex="1">
          <mxGeometry x="400.75" y="876" width="14.37" height="7" as="geometry" />
        </mxCell>
        <mxCell id="pHoPj_1X2IQjKwYX7QEu-228" value="&lt;font style=&quot;color: rgb(0, 0, 0);&quot; face=&quot;Comic Sans MS&quot;&gt;&lt;span style=&quot;font-size: 1px;&quot;&gt;BookId#3&lt;/span&gt;&lt;/font&gt;" style="text;html=1;align=center;verticalAlign=middle;whiteSpace=wrap;rounded=0;" parent="1" vertex="1">
          <mxGeometry x="413" y="876" width="14.37" height="7" as="geometry" />
        </mxCell>
        <mxCell id="pHoPj_1X2IQjKwYX7QEu-229" value="" style="shape=message;html=1;html=1;outlineConnect=0;labelPosition=center;verticalLabelPosition=bottom;align=center;verticalAlign=top;strokeWidth=0.2;fillColor=none;" parent="1" vertex="1">
          <mxGeometry x="414" y="881.78" width="10" height="3.44" as="geometry" />
        </mxCell>
        <mxCell id="pHoPj_1X2IQjKwYX7QEu-231" value="&lt;font style=&quot;font-size: 5px; color: light-dark(rgb(0, 153, 77), rgb(50, 50, 0));&quot; face=&quot;Comic Sans MS&quot;&gt;&lt;b style=&quot;&quot;&gt;Partition #1&lt;/b&gt;&lt;/font&gt;" style="text;html=1;align=center;verticalAlign=middle;whiteSpace=wrap;rounded=0;" parent="1" vertex="1">
          <mxGeometry x="428.18" y="867.86" width="40" height="10" as="geometry" />
        </mxCell>
        <mxCell id="pHoPj_1X2IQjKwYX7QEu-232" value="&lt;font style=&quot;color: rgb(0, 0, 0);&quot; face=&quot;Comic Sans MS&quot;&gt;&lt;span style=&quot;font-size: 1px;&quot;&gt;PaymentId#1&lt;/span&gt;&lt;/font&gt;" style="text;html=1;align=center;verticalAlign=middle;whiteSpace=wrap;rounded=0;" parent="1" vertex="1">
          <mxGeometry x="427.7900000000001" y="876.89" width="14.37" height="7" as="geometry" />
        </mxCell>
        <mxCell id="pHoPj_1X2IQjKwYX7QEu-233" value="" style="shape=message;html=1;html=1;outlineConnect=0;labelPosition=center;verticalLabelPosition=bottom;align=center;verticalAlign=top;strokeWidth=0.2;fillColor=none;" parent="1" vertex="1">
          <mxGeometry x="429.98" y="881.67" width="10" height="3.44" as="geometry" />
        </mxCell>
        <mxCell id="pHoPj_1X2IQjKwYX7QEu-236" value="&lt;font style=&quot;color: rgb(0, 0, 0);&quot; face=&quot;Comic Sans MS&quot;&gt;&lt;span style=&quot;font-size: 1px;&quot;&gt;PaymentId#3&lt;/span&gt;&lt;/font&gt;" style="text;html=1;align=center;verticalAlign=middle;whiteSpace=wrap;rounded=0;" parent="1" vertex="1">
          <mxGeometry x="449.41" y="876.89" width="14.37" height="7" as="geometry" />
        </mxCell>
        <mxCell id="pHoPj_1X2IQjKwYX7QEu-237" value="" style="shape=message;html=1;html=1;outlineConnect=0;labelPosition=center;verticalLabelPosition=bottom;align=center;verticalAlign=top;strokeWidth=0.2;fillColor=none;" parent="1" vertex="1">
          <mxGeometry x="451.41" y="881.67" width="10" height="3.44" as="geometry" />
        </mxCell>
        <mxCell id="pHoPj_1X2IQjKwYX7QEu-235" value="&lt;span style=&quot;font-family: &amp;quot;Comic Sans MS&amp;quot;; font-size: 1px;&quot;&gt;&lt;font style=&quot;color: rgb(0, 0, 0);&quot;&gt;PaymentId#2&lt;/font&gt;&lt;/span&gt;" style="text;html=1;align=center;verticalAlign=middle;whiteSpace=wrap;rounded=0;" parent="1" vertex="1">
          <mxGeometry x="439.16" y="876.89" width="14.37" height="7" as="geometry" />
        </mxCell>
        <mxCell id="pHoPj_1X2IQjKwYX7QEu-234" value="" style="shape=message;html=1;html=1;outlineConnect=0;labelPosition=center;verticalLabelPosition=bottom;align=center;verticalAlign=top;strokeWidth=0.2;fillColor=none;" parent="1" vertex="1">
          <mxGeometry x="440.41" y="881.66" width="10" height="3.44" as="geometry" />
        </mxCell>
        <mxCell id="pHoPj_1X2IQjKwYX7QEu-239" value="" style="rounded=1;fillColor=#fff2cc;strokeColor=#d6b656;shadow=1;html=1;arcSize=4;sketch=1;hachureGap=4;pointerEvents=0;fontFamily=Architects Daughter;fontSource=https%3A%2F%2Ffonts.googleapis.com%2Fcss%3Ffamily%3DArchitects%2BDaughter;fontSize=20;align=left;" parent="1" vertex="1">
          <mxGeometry x="277" y="600" width="275" height="136" as="geometry" />
        </mxCell>
        <mxCell id="pHoPj_1X2IQjKwYX7QEu-240" value="" style="html=1;shadow=0;dashed=0;shape=mxgraph.atlassian.checkbox;fillColor=#36B37E;strokeColor=none;html=1;fontSize=14;fontStyle=0;labelPosition=right;align=left;spacingLeft=20;sketch=0;hachureGap=4;pointerEvents=0;fontFamily=Architects Daughter;fontSource=https%3A%2F%2Ffonts.googleapis.com%2Fcss%3Ffamily%3DArchitects%2BDaughter;" parent="pHoPj_1X2IQjKwYX7QEu-239" vertex="1">
          <mxGeometry width="14" height="14" relative="1" as="geometry">
            <mxPoint x="3" y="5" as="offset" />
          </mxGeometry>
        </mxCell>
        <mxCell id="pHoPj_1X2IQjKwYX7QEu-241" value="&lt;font face=&quot;Lucida Console&quot;&gt;&lt;b&gt;Partition&lt;/b&gt;&lt;/font&gt;" style="text;html=1;align=center;verticalAlign=middle;whiteSpace=wrap;rounded=0;" parent="pHoPj_1X2IQjKwYX7QEu-239" vertex="1">
          <mxGeometry x="32.36412556053811" y="4.936296296296295" width="43.07757847533632" height="14.985185185185186" as="geometry" />
        </mxCell>
        <mxCell id="pHoPj_1X2IQjKwYX7QEu-242" value="&lt;ul&gt;&lt;li&gt;&lt;font face=&quot;Comic Sans MS&quot; style=&quot;font-size: 8px;&quot;&gt;Partition allows topics to be &lt;strong data-end=&quot;154&quot; data-start=&quot;122&quot;&gt;split into multiple segments&lt;/strong&gt; to enable parallel processing, scalability, and fault tolerance.&lt;/font&gt;&lt;/li&gt;&lt;li data-end=&quot;326&quot; data-start=&quot;264&quot;&gt;&lt;font face=&quot;Comic Sans MS&quot; style=&quot;font-size: 8px;&quot;&gt;A &lt;strong data-end=&quot;283&quot; data-start=&quot;268&quot;&gt;Kafka topic&lt;/strong&gt; is divided into multiple &lt;strong data-end=&quot;323&quot; data-start=&quot;309&quot;&gt;partitions&lt;/strong&gt;.&lt;/font&gt;&lt;/li&gt;&lt;li data-end=&quot;395&quot; data-start=&quot;327&quot;&gt;&lt;font face=&quot;Comic Sans MS&quot; style=&quot;font-size: 8px;&quot;&gt;Each partition is an &lt;strong data-end=&quot;392&quot; data-start=&quot;350&quot;&gt;ordered, immutable sequence of records&lt;/strong&gt;.&lt;/font&gt;&lt;/li&gt;&lt;li data-end=&quot;486&quot; data-start=&quot;396&quot;&gt;&lt;font face=&quot;Comic Sans MS&quot; style=&quot;font-size: 8px;&quot;&gt;Every record inside a partition gets a unique &lt;strong data-end=&quot;454&quot; data-start=&quot;444&quot;&gt;offset&lt;/strong&gt; (an identifier for ordering).&lt;/font&gt;&lt;/li&gt;&lt;li data-end=&quot;609&quot; data-start=&quot;487&quot;&gt;&lt;font face=&quot;Comic Sans MS&quot; style=&quot;font-size: 8px;&quot;&gt;Partitions enable &lt;strong data-end=&quot;529&quot; data-start=&quot;507&quot;&gt;horizontal scaling&lt;/strong&gt; by allowing multiple consumers to read from different partitions in parallel.&lt;/font&gt;&lt;/li&gt;&lt;/ul&gt;" style="text;html=1;align=left;verticalAlign=middle;whiteSpace=wrap;rounded=0;" parent="pHoPj_1X2IQjKwYX7QEu-239" vertex="1">
          <mxGeometry x="-24.5" y="19.013333333333335" width="296.5" height="108.12" as="geometry" />
        </mxCell>
        <mxCell id="pHoPj_1X2IQjKwYX7QEu-244" value="" style="rounded=1;fillColor=#fff2cc;strokeColor=#d6b656;shadow=1;html=1;arcSize=4;sketch=1;hachureGap=4;pointerEvents=0;fontFamily=Architects Daughter;fontSource=https%3A%2F%2Ffonts.googleapis.com%2Fcss%3Ffamily%3DArchitects%2BDaughter;fontSize=20;align=left;" parent="1" vertex="1">
          <mxGeometry x="-9" y="600" width="275" height="136" as="geometry" />
        </mxCell>
        <mxCell id="pHoPj_1X2IQjKwYX7QEu-245" value="" style="html=1;shadow=0;dashed=0;shape=mxgraph.atlassian.checkbox;fillColor=#36B37E;strokeColor=none;html=1;fontSize=14;fontStyle=0;labelPosition=right;align=left;spacingLeft=20;sketch=0;hachureGap=4;pointerEvents=0;fontFamily=Architects Daughter;fontSource=https%3A%2F%2Ffonts.googleapis.com%2Fcss%3Ffamily%3DArchitects%2BDaughter;" parent="pHoPj_1X2IQjKwYX7QEu-244" vertex="1">
          <mxGeometry width="14" height="14" relative="1" as="geometry">
            <mxPoint x="3" y="5" as="offset" />
          </mxGeometry>
        </mxCell>
        <mxCell id="pHoPj_1X2IQjKwYX7QEu-246" value="&lt;font face=&quot;Lucida Console&quot;&gt;&lt;b&gt;Producer&lt;/b&gt;&lt;/font&gt;" style="text;html=1;align=center;verticalAlign=middle;whiteSpace=wrap;rounded=0;" parent="pHoPj_1X2IQjKwYX7QEu-244" vertex="1">
          <mxGeometry x="28.364125560538113" y="6.069629629629628" width="43.07757847533632" height="14.985185185185186" as="geometry" />
        </mxCell>
        <mxCell id="pHoPj_1X2IQjKwYX7QEu-247" value="&lt;ul&gt;&lt;li&gt;&lt;font face=&quot;Comic Sans MS&quot;&gt;&lt;span style=&quot;font-size: 8px;&quot;&gt;A producer is an entity that pushes the messages/data into the topic.&lt;/span&gt;&lt;/font&gt;&lt;/li&gt;&lt;li&gt;&lt;font face=&quot;Comic Sans MS&quot;&gt;&lt;span style=&quot;font-size: 8px;&quot;&gt;Producers will not worry about whether the message was consumed or not.&amp;nbsp;&lt;/span&gt;&lt;/font&gt;&lt;/li&gt;&lt;li&gt;&lt;font face=&quot;Comic Sans MS&quot;&gt;&lt;span style=&quot;font-size: 8px;&quot;&gt;A single producer can push messages/data to multiple topics by specifying the topic name in &lt;b&gt;ProducerRecord&lt;/b&gt;.&amp;nbsp;&lt;/span&gt;&lt;/font&gt;&lt;/li&gt;&lt;/ul&gt;" style="text;html=1;align=left;verticalAlign=middle;whiteSpace=wrap;rounded=0;" parent="pHoPj_1X2IQjKwYX7QEu-244" vertex="1">
          <mxGeometry x="-24.5" y="18.813333333333336" width="296.5" height="108.12" as="geometry" />
        </mxCell>
        <mxCell id="pHoPj_1X2IQjKwYX7QEu-254" value="" style="rounded=1;fillColor=#dae8fc;strokeColor=#6c8ebf;shadow=1;html=1;arcSize=4;sketch=1;hachureGap=4;pointerEvents=0;fontFamily=Architects Daughter;fontSource=https%3A%2F%2Ffonts.googleapis.com%2Fcss%3Ffamily%3DArchitects%2BDaughter;fontSize=20;align=left;" parent="1" vertex="1">
          <mxGeometry x="-9" y="741" width="275" height="74" as="geometry" />
        </mxCell>
        <mxCell id="pHoPj_1X2IQjKwYX7QEu-255" value="" style="html=1;shadow=0;dashed=0;shape=mxgraph.atlassian.checkbox;fillColor=#36B37E;strokeColor=none;html=1;fontSize=14;fontStyle=0;labelPosition=right;align=left;spacingLeft=20;sketch=0;hachureGap=4;pointerEvents=0;fontFamily=Architects Daughter;fontSource=https%3A%2F%2Ffonts.googleapis.com%2Fcss%3Ffamily%3DArchitects%2BDaughter;" parent="pHoPj_1X2IQjKwYX7QEu-254" vertex="1">
          <mxGeometry width="14" height="14" relative="1" as="geometry">
            <mxPoint x="4" y="2" as="offset" />
          </mxGeometry>
        </mxCell>
        <mxCell id="pHoPj_1X2IQjKwYX7QEu-256" value="&lt;font face=&quot;Lucida Console&quot;&gt;&lt;b&gt;Consumer&lt;/b&gt;&lt;/font&gt;" style="text;html=1;align=center;verticalAlign=middle;whiteSpace=wrap;rounded=0;" parent="pHoPj_1X2IQjKwYX7QEu-254" vertex="1">
          <mxGeometry x="32.291631830964505" y="3.4354587032553123" width="36.506422436725686" height="8.222222222222223" as="geometry" />
        </mxCell>
        <mxCell id="pHoPj_1X2IQjKwYX7QEu-257" value="&lt;ul&gt;&lt;li&gt;&lt;span style=&quot;background-color: transparent; color: light-dark(rgb(0, 0, 0), rgb(255, 255, 255)); font-family: &amp;quot;Comic Sans MS&amp;quot;; font-size: 8px;&quot;&gt;A consumer is an entity that reads/consumes messages from topics by subscribing to that topic.&amp;nbsp;&lt;/span&gt;&lt;/li&gt;&lt;li&gt;&lt;font style=&quot;font-size: 8px;&quot; face=&quot;Comic Sans MS&quot;&gt;&lt;span style=&quot;&quot; data-end=&quot;74&quot; data-start=&quot;7&quot;&gt;A single consumer can consume messages from multiple topics&lt;/span&gt;.&lt;/font&gt;&lt;/li&gt;&lt;li&gt;&lt;font style=&quot;font-size: 8px;&quot; face=&quot;Comic Sans MS&quot;&gt;&lt;b&gt;consumer.subscribe(Arrays.asList(&quot;BookingTopic&quot;,&quot;PaymentTopic&quot;))&lt;/b&gt;&lt;/font&gt;&lt;/li&gt;&lt;/ul&gt;" style="text;html=1;align=left;verticalAlign=middle;whiteSpace=wrap;rounded=0;" parent="pHoPj_1X2IQjKwYX7QEu-254" vertex="1">
          <mxGeometry x="-24.966101694915253" y="25.714285714285708" width="302.96610169491527" height="31.71428571428571" as="geometry" />
        </mxCell>
        <mxCell id="pHoPj_1X2IQjKwYX7QEu-258" value="" style="rounded=1;fillColor=#d0cee2;strokeColor=#56517e;shadow=1;html=1;arcSize=4;sketch=1;hachureGap=4;pointerEvents=0;fontFamily=Architects Daughter;fontSource=https%3A%2F%2Ffonts.googleapis.com%2Fcss%3Ffamily%3DArchitects%2BDaughter;fontSize=20;align=left;" parent="1" vertex="1">
          <mxGeometry x="-9" y="820" width="275" height="100" as="geometry" />
        </mxCell>
        <mxCell id="pHoPj_1X2IQjKwYX7QEu-259" value="" style="html=1;shadow=0;dashed=0;shape=mxgraph.atlassian.checkbox;fillColor=#36B37E;strokeColor=none;html=1;fontSize=14;fontStyle=0;labelPosition=right;align=left;spacingLeft=20;sketch=0;hachureGap=4;pointerEvents=0;fontFamily=Architects Daughter;fontSource=https%3A%2F%2Ffonts.googleapis.com%2Fcss%3Ffamily%3DArchitects%2BDaughter;" parent="pHoPj_1X2IQjKwYX7QEu-258" vertex="1">
          <mxGeometry width="14" height="14" relative="1" as="geometry">
            <mxPoint x="3" y="5" as="offset" />
          </mxGeometry>
        </mxCell>
        <mxCell id="pHoPj_1X2IQjKwYX7QEu-260" value="&lt;b style=&quot;&quot;&gt;&lt;font face=&quot;Comic Sans MS&quot;&gt;Topic&lt;/font&gt;&lt;/b&gt;" style="text;html=1;align=center;verticalAlign=middle;whiteSpace=wrap;rounded=0;" parent="pHoPj_1X2IQjKwYX7QEu-258" vertex="1">
          <mxGeometry x="18.2916318309645" y="5.680656443368306" width="36.506422436725686" height="10.555555555555555" as="geometry" />
        </mxCell>
        <mxCell id="pHoPj_1X2IQjKwYX7QEu-261" value="&lt;ul&gt;&lt;li&gt;&lt;span style=&quot;background-color: transparent; color: light-dark(rgb(0, 0, 0), rgb(255, 255, 255)); font-family: &amp;quot;Comic Sans MS&amp;quot;; font-size: 8px;&quot;&gt;&lt;b&gt;A logical channel&lt;/b&gt; where &lt;b&gt;messages &lt;/b&gt;are &lt;b&gt;sent&lt;/b&gt;. So that consumers can subscribe to topics.&amp;nbsp;&lt;/span&gt;&lt;/li&gt;&lt;li data-end=&quot;1143&quot; data-start=&quot;1075&quot;&gt;&lt;font style=&quot;font-size: 8px;&quot; face=&quot;Comic Sans MS&quot;&gt;Topics will be divided into multiple &lt;strong data-end=&quot;1124&quot; data-start=&quot;1110&quot;&gt;partitions&lt;/strong&gt; for scalability.&lt;/font&gt;&lt;/li&gt;&lt;li&gt;&lt;font style=&quot;font-size: 8px;&quot; face=&quot;Comic Sans MS&quot;&gt;Messages in a topic are immutable and stored for a configured retention period.&lt;/font&gt;&lt;/li&gt;&lt;/ul&gt;" style="text;html=1;align=left;verticalAlign=middle;whiteSpace=wrap;rounded=0;" parent="pHoPj_1X2IQjKwYX7QEu-258" vertex="1">
          <mxGeometry x="-26.97" y="17" width="302.97" height="80" as="geometry" />
        </mxCell>
      </root>
    </mxGraphModel>
  </diagram>
</mxfile>
